<svg width="96" height="96" viewBox="0 0 96 96" fill="none" xmlns="http://www.w3.org/2000/svg">
<path d="M76 56C76 62.3652 73.4716 68.4696 68.9704 72.9704C64.4696 77.4716 58.3652 80 52 80C46.5976 80 41.3456 78.1636 37.0658 74.77L25.3726 86.4628C23.8105 88.0248 21.2779 88.0248 19.7157 86.4628C18.1537 84.9004 18.1537 82.368 19.7157 80.806L31.4089 69.1128C27.9966 64.8196 26.1537 59.5504 26.1537 54.1532C26.1537 47.7876 28.698 41.6836 33.1987 37.183C37.6994 32.6823 43.8036 30.1379 50.1692 30.1379C51.422 30.1379 52.6576 30.2263 53.8708 30.3982C53.1984 33.1077 52.8268 35.9241 52.8268 38.8286C52.8268 48.1084 57.4716 56.3632 64.5688 61.4336C69.2072 59.906 73.1408 56.794 75.7076 52.6576C75.9024 53.7068 76 54.7784 76 55.8732V56Z" fill="black"/>
</svg>
